<svg xmlns="http://www.w3.org/2000/svg" viewBox="0 0 54 69" width="54" height="69"><defs><path d="M0 1h54v68H0z"/></defs><path id="Path 1" fill-rule="evenodd" d="M27.24.85l26.65 2.79v49.33l-.08.05L26.95 69 0 52.97V3.64L26.95.82l.29.03zM3.85 25.06l22.79-13.57v-.22l.17.11.18-.1v.21l23.05 13.58V7.11L26.95 4.69 3.85 7.11v17.95zm22.93 16.51l3.6-2.17-3.71-2.18.03-2.82 6.06 3.57 1.57-1.05-7.66-4.55.03-2.83 10.06 5.99 1.72-1.02-11.81-7.02.03-2.83 14.19 8.44 8.96-5.28L26.81 14.4 4.07 28.06l22.71 13.51zm.17 13.33l-.1-.04-16.04-9.65.03-2.83 15.95 9.48-.04-2.15-15.96-9.59.03-2.83 15.88 9.46-.03-2.09L3.85 31.07v19.71l23.1 13.74 23.09-13.74V30.73l-6.83 4.08.02 10.35-16.28 9.74z"/></svg>