<svg xmlns="http://www.w3.org/2000/svg" viewBox="0 0 153 139" width="153" height="139"><defs><path d="M0 0h152v138H0z"/></defs><path id="Path 1" fill-rule="evenodd" d="M152.33 100.67v6.91c0 4.67-3.82 8.5-8.5 8.5h-1.91v2.08A19.9 19.9 0 0 1 122.07 138H30.26a19.9 19.9 0 0 1-19.84-19.84v-2.08H8.5a8.53 8.53 0 0 1-8.5-8.5v-6.91c0-4.68 3.83-8.5 8.5-8.5h135.33c4.68 0 8.5 3.82 8.5 8.5zm-16.41 15.41H16.42v2.08c0 7.63 6.21 13.84 13.84 13.84h91.81c7.64 0 13.85-6.21 13.85-13.84v-2.08zm10.41-15.41c0-1.36-1.14-2.5-2.5-2.5H8.5a2.53 2.53 0 0 0-2.5 2.5v6.91c0 1.36 1.15 2.5 2.5 2.5h135.33c1.36 0 2.5-1.14 2.5-2.5v-6.91zM21.37 83.79L8.65 74.5l3.54-4.84 9.18 6.71 10.96-8 10.94 8 10.95-8 10.96 8 10.96-8 10.96 8 10.95-8 10.96 8 10.96-8 10.98 8 9.2-6.71 3.53 4.84-12.73 9.29-10.98-8-10.96 8-10.96-8-10.95 8-10.96-8-10.96 8-10.96-8-10.95 8-10.95-8-10.95 8zM10.56 62.27c-.09-1.22-.11-5.23-.08-6C11.85 25.03 40.73.08 76.17.08s64.31 24.95 65.68 56.19c.03.77.01 4.78-.07 6H10.56zm5.92-6h119.37c-1.38-27.88-27.62-50.19-59.68-50.19-32.07 0-58.3 22.31-59.69 50.19zm59.69-30.1a4 4 0 1 1-.01 8.01 4 4 0 0 1 .01-8.01zm-16-9.92a4 4 0 1 1-.01 8.01 4 4 0 0 1 .01-8.01zm32 0a4 4 0 1 1-.01 8.01 4 4 0 0 1 .01-8.01z"/></svg>