<svg xmlns="http://www.w3.org/2000/svg" viewBox="0 0 36 30" width="36" height="30"><defs><path d="M0 1h35v29H0z"/></defs><path id="Path 1" d="M22.57.98c3.47-.97 6.14.53 7.37 2.3 1.38-.45 2.74-.94 4.14-1.38a4.54 4.54 0 0 1-1.77 3.46c1.41.33 2.69-.97 2.69-.97a5.79 5.79 0 0 1-3.22 3.96c-.48 13.18-6.55 21.91-20.77 21.64h-.92c-.84 0-8.58-.89-10.09-3.68 4.68.38 8.02-.83 9.67-2.3-1.98-.59-5.52-.93-6.14-5.76.72.21 1.17.44 2.46.23C3.51 16.81.77 15.41.92 11.11c.59.64 2.2 1.05 2.76.92-1.45-.47-4.06-6.56-1.84-9.67 3.75 3.62 7.7 7.04 14.74 7.37.43-4.48 2.34-7.48 5.99-8.75z"/></svg>