<svg xmlns="http://www.w3.org/2000/svg" viewBox="0 0 127 151" width="127" height="151"><defs><path d="M0 1h126v150H0z"/></defs><path id="Path 1" fill-rule="evenodd" d="M126 50.96v22.37a5.68 5.68 0 0 1-5.67 5.67h-.2v72H6.21V79h-.54A5.68 5.68 0 0 1 0 73.33V50.96a5.7 5.7 0 0 1 5.67-5.67h44.14c-9.63-5.36-24.27-12.07-28.7-22.7C16.49 11.53 27.86 1.6 35.79.9c5.26-.47 8.87 1.75 11.36 4 8.57 7.75 12.23 23.06 16.02 35.05C66.14 28.1 69.23 11.7 80.2 7.57c8.48-3.19 17.4 2.85 19.69 10.68 1 4.81-1.17 13.41-28.37 27.04h48.81a5.7 5.7 0 0 1 5.67 5.67zM114.25 79H76.11v66.13h38.14V79zM70.23 51.29H56.1v93.83h14.13V51.29zm-20 0H6V73h44.23V51.29zm0 27.71H12.08v66.13h38.15V79zm6.93-37.04C54.39 31.19 50.73 15.9 43.14 9.24c-6.05-5.3-17.14.58-17.36 7.68-.2 6.6 8.3 12.42 12.68 15.36 6.24 4.17 12.3 6.64 18.7 9.68zm12.35-2.34c4.65-2.79 9.39-4.57 14.36-8.01 3.32-2.3 10.79-7.24 10.01-12.69-.53-3.77-6.21-6.95-10.35-6.34-8.99 1.33-12.27 19.75-14.02 27.04zM120 51.29H76.11V73H120V51.29z"/></svg>