<svg xmlns="http://www.w3.org/2000/svg" viewBox="0 0 150 146" width="150" height="146"><defs><path d="M0 0h149v145H0z"/></defs><path id="Path 1" fill-rule="evenodd" d="M59.01 83.12h32V131h-32V83.12zM85.13 89H64.88v36.12h20.25V89z"/><path id="Path 2" fill-rule="evenodd" class="shp0" d="M101.95 27.57V1.25h27.63v53.96l19.81 19.82-4.15 4.16-15.67-15.67v75.6h10.12V145H11.94v-5.88h7.88v-75.6L4.15 79.19 0 75.03 74.7.31l27.25 27.26zm21.75 21.76V7.12h-15.87v26.33l15.87 15.88zm-98.01 89.79h98.01V57.65l-49-49-49.01 49v81.47z"/><path id="Path 3" fill-rule="evenodd" d="M75.01 39.23a15.5 15.5 0 1 1 0 31 15.5 15.5 0 0 1 0-31zm-9.94 15.5a9.94 9.94 0 1 0 19.88 0 9.94 9.94 0 0 0-19.88 0zM33.82 83.12h6V91h-6v-7.88zm11.87 0h6V91h-6v-7.88zm-11.87 12h6V103h-6v-7.88zm11.87 0h6V103h-6v-7.88zm52-12h6V91h-6v-7.88zm11.88 0h6V91h-6v-7.88zm-11.88 12h6V103h-6v-7.88zm11.88 0h6V103h-6v-7.88z"/></svg>