<svg xmlns="http://www.w3.org/2000/svg" viewBox="0 0 205 169" width="205" height="169"><defs><clipPath id="cp1"><path d="M1 0h203v168H1z"/></clipPath></defs><style>.shp0{fill:#23a9e1}.shp1{fill:#fff}</style><g id="Page 1" clip-path="url(#cp1)"><path id="Path 1" class="shp0" d="M3.12 1.44l99.04 116.7L200.81 2.15 3.12 1.44z"/><path id="Path 2" class="shp1" d="M160.68 34.66l-30.38.17c12.01-13.86 17.4-12.38 30.38-.17zM78.33 45.38h53.36c-3.97-2.47-13.42-14.12-18.62-9.79-.42.36-15.01-17.7-24.59-9-8.36 7.6-12.24-.99-21.71 5.02-10.8 7.14 6.24 11.35 11.56 13.77z"/><path id="Path 3" fill-rule="evenodd" d="M204.34.03v46.33l-101.5 120.79-.68.85L1 44.95V.03h203.34zm-7.09 3.55H8.42l93.74 111.37-60.5-71.88c8.18-13.99 19.89-16.09 32.5-.95 4.86 6.09 5.11 10.84 8.48 11.08 6.29.45 6.85-7.4 11.91-8.58 5.77-1.36 7.44.99 10.32 2.12 3.1 1.21 5.48.83 6.98 3.82 1.94 3.88 2.14 7.78 8.94 8.91 13.47 2.24 23.37-8.01 37.2-9.91l39.26-45.98z" fill="#491213"/><path id="Path 4" class="shp0" d="M94.12 141.83l8.04-13 8.01 13-8.01 13.03-8.04-13.03z"/><path id="Path 5" class="shp1" d="M47.56 64.53c1.03 1.23 1.78 2.57 1.61 4.23-.12 1.16-1.87 3.1-.54 3.69l4.49-5.67c-1.21-.3-10.73-11.69-10.89-12.94l-6.32 3.47c.33 1.32 2.59.01 3.71.09 1.66.12 2.85 1.12 3.91 2.3-3.46 2.9-11.86 10.04-12.75 10.18-.45.08-2.18-1.2-2.2-.11-.01.53 1.7 2.03 2.03 2.42l4.46 5.31c1.23-.57-.22-1.47.41-2.49.46-.75 9.8-8.53 12.08-10.48zM37.01 50.57c.89-.19 1.25.87 1.92-.11l-4.9-5.84c-.74-.88-1.68-1.83-1.41.04.18 1.26-12.23 11.33-12.98 11.64-.96.39-1.52-.84-2.22.19l4.38 5.22c.5.58.96 1.22 1.5 1.76.67.68.41-1.34.44-1.17-.18-1.02 1.06-1.89 1.72-2.45 3.09-2.73 10.79-9.18 11.55-9.28zm-17.54-1.84c-3.53 1.05-7.3-.32-8.41-4.08-1.09-3.67 1.23-7.51 4.14-9.6 2.88-2.07 7.18-1.94 8.75 1.67.69 1.6.31 3.42-.19 5.01-.32 1.01-1.2 2 .11 2.58l5.16-6.58c-2.11-1.26-3.03-3.36-4.6-5.19-1.76-2.14-4.13-4.15-6.96-4.56-5.74-.82-11.15 5.11-11.59 10.49a11.5 11.5 0 0 0 2.49 8c1.5 1.99 3.73 3.24 4.87 5.51.52.19 5.41-2.07 6.57-2.51-.1-.23-.18-.55-.34-.74-1.52.46 0 0 0 0zm78.6 72.82c-2.3-1.54-8.05-9.38-9.14-10.68l-.66-.78c-.02-.03-.57.44-.49.38-.35.29.26 1.14-.11 1.72-1.58 2.48-11.51 9.97-12.03 10.33-1.11.77-2.33-.32-2.98.63 1.44 1.71 5.56 7.09 6.04 7.17.96.15.3-1.63.42-2 .25-.74 5.27-4.89 7.1-6.43.67-.56 1.38.86 1.78 1.45.65.97.95 2 .59 3.14-.23.74-1.43 1.84-.5 2.34l5.23-6.09c.5-.59-1.13-.08-.94-.18-.74.38-1.44.47-2.13-.05-.19-.15-2.17-2.17-1.98-2.34.87-.72 1.92-1.92 3.04-2.2 1.72-.42 3.16 3.04 3.42 4.26.24 1.16.2 2.37-.16 3.5-.24.78-.97 1.39.04 1.86l4.26-5.84a1.4 1.4 0 0 1-.8-.19c-.25-.17.28.14 0 0z"/><path id="Path 6" fill-rule="evenodd" class="shp1" d="M77.98 112.97c.52-.44 1.24-1.03-.33.3l-.02.02c-5.19 3.7-11.61 3.11-15.59-2.13a10.62 10.62 0 0 1 1.52-14.65c4.86-4.09 11.87-2.88 15.6 2.1a10.7 10.7 0 0 1-1.18 14.36zm-.33.3l.33-.3c-.23.2-.42.36-.35.32l.02-.02zm-.95-9.49l-.01.01-.08.19c.07-.18.13-.3.09-.2zm-4.71-5.1a14.92 14.92 0 0 0-7.48 7.33c-1.48 3.45 1.08 6.54 4.72 5.11 3-1.19 6.04-4.19 7.38-7.14-.17.39-.45 1.04.08-.19l.01-.01c1.42-3.41-1.01-6.57-4.71-5.1zm-7.22-14.6c.15.01.28.03-.03-.01-.32-.04-.22-.02-.07-.01-2.95-.33-6.4.65-9.3 1.06-1.99.28-6.69 4.86-6.99 5.72-.11.38.82 2.36-.23 2.17-.33-.06-1.28-1.49-1.53-1.79l-4.98-5.91c.79-1.12 1.36.45 2.44.08.93-.33 4.42-3.37 5.4-4.2 1.98-1.66 3.68-8.47 3.85-8.94.19-.52.26-3.53.18-3.46.84-.7 1.34.62 1.96 1.36l5.49 6.5c-.8 1.15-1.48-.61-2.57.28-.52.44-1.86 4.39-2.31 5.67 1.23-.21 5.86-.92 6.35-1.78.48-.84-.8-1.4.39-1.94l4.45 5.28c-.67 1-1.56.05-2.5-.08zm-.03-.01l.03.01-.1-.02.07.01z"/><path id="Path 7" d="M52.22 45.75c-8.09-.34-4.71-7.91.79-9.62 5.22-1.63 16.17 3.43 19.68 6.8-5.56 1.71-12.77 1.46-18.89 1.74-.46-6.24-1.92-4.06-1.58 1.08zm2.03 9.7c-4.08-3.16-2.8-10.54 3.52-8.3 8.01 4.17-1.71 6.48-3.52 8.3 0 0 .08-.09 0 0zm16.97 15.39c-17.24-.14-5.58-26.64.28-25.04 6.75 2.15 5.99 25.24-.28 25.04zm12.21-8.66c-1.68 5.01-4.72 5.94-4.38-.14.39-7 4.96-5.32 9.86-8 4.08-2.24 6.28-10.43 13.28-5.53 3.13 2.18 6.71.35 7.7 3.66-.05-.17-9.08 20.62-4.06 20.62-9.92 0-5.54-11.85-1.75-19.8-3.69 1.77-9.68 13.38-4.76 15.29-2.56 3.37-10.39 7.89-14.47 4.59-3.1-2.5-1.38-6.65-1.42-10.69zm8.21 19.21c-6.98 2.09-16.24-2.41-5.02-4.68 6.97-1.41 14.38 1.56 5.02 4.68.28-.08-.25.09 0 0zm8.74-.28c-1.47-3.32 1.13-7.27 5.36-4.4 3.69 2.51-1.7 6.21-5.36 4.4zm-5.89 9.34c-4.82-1.5-21.07-1.13-10.44-5.53 3.28-1.36 20.31.19 10.44 5.53zm6.43-.71c-.01-1.92-1.02-5.36 2.71-3.89 4.47 1.76-2.71 5.3-2.71 3.89 0 0 0-.34 0 0zm14.44 7.33c-2.88-2.45-5.78-2.59-8.46 0-3.59-6.58-16.64-4.38-22.73-5.3 3.28 8.06 29.73 9.56 31.19 5.3zm-3.81 4.85c-6.3-.29-13.34-1.12-19.29.17 3.72.93 12.79 3.59 4.34 5.84 3.03 4.33 7.95 4.05 11.17.25-1.31-.64-2.02-1.44-3.1-2.11 3.34-.61 6.47-2.54 6.88-4.15zm7.19-7.75c-10.57-6.23-7.9-10.86.71-15.18 4.51-2.26 14.65-10.41 18.9-7.7l-19.61 22.88z" fill="#dc6243"/><path id="Path 8" d="M111.21 79.62c-8.95-9.21 13.38-8.36 16.98-11.6 2.62.88 21.53-16.56 26.14-15.48-3.31 3.88-10.44 16.27-15.55 16.27-3.93 0-7.9-.58-10.94 2.22-4.45 4.09-11.82 6.18-16.63 8.59z" fill="#f49774"/><path id="Path 9" d="M114.15 68.36c-4.91 2.64-9.55-7.81-1.08-6.79 5.63.67 11.33-.48 16.7.45-3.85 4.58-9.41 7.11-15.62 6.34z" fill="#f4b1a4"/><path id="Path 10" class="shp1" d="M139.41 104.93c.38 1.3.6 2.66.43 4.02-.21 1.74-1.96 5.85-4.34 4.68-2.34-1.15-4.39-3.46-6.38-5.11 1.6-1.87 3.01-3.49 5.71-2.59.74.25 1.37-.07.6-.52-.81-.47-6.23-3.93-6.53-3.6-.54.62 1.06 1.74.45 2.95-.46.89-1.22 1.67-1.87 2.44-1.44-1.22-3.84-2.51-2.11-4.52a7.36 7.36 0 0 1 4.19-2.68c1.14-.23 3.69.78 4.02-.45l-6.52-3.13c.35 1.6-6.7 9.05-8.26 10.93-.23.27-1.32 1.22-1.33 1.59-.02.86 1.24.2 1.32.17.97-.36 13.63 10.22 13.94 10.94.2.57-.44 1.15-.06 1.47-.02-.02.46.43.51.37.78-.94 9.04-11.96 10.75-12.44a825.06 825.06 0 0 1-4.74-7.3c-1.18.51-.04 1.9.22 2.78zm-12.32 13.41c-4.15-2.68-11.19 2.55-12.25 3.06-2.08.98-3.58-1.09-2.5-3.01.94-1.66 2.79-2.46 4.62-2.57.55-.04 2.7.39 2.92.05.26-.41.45-.44.08-.69l-5.13-3.47c-.36 2.11-2.77 3.45-4.16 4.88-1.64 1.71-3.04 3.86-3.04 6.31a6.05 6.05 0 0 0 3.36 5.32c2.27 1.19 4.63.24 6.65-1.02 1.25-.78 2.5-1.71 3.84-2.34 2-.93 4.61-.13 3.91 2.54a7.2 7.2 0 0 1-4.81 4.68 6.53 6.53 0 0 1-3.74-.18c-.87-.28-1.99-1.47-2.46-.22l6.96 5.07c.21-1.52 1.04-2.18 2.17-3.13a23.35 23.35 0 0 0 3.99-4.26c2.32-3.38 3.08-8.12-.41-11.02zm0 0c1.85 1.19-1.18-.99 0 0zm58.47-74.63c-.02 0-.02 0 0 0z"/><path id="Path 11" fill-rule="evenodd" class="shp1" d="M201.12 39.82l-6.6 7.94c-.13.16-.45-.25-.54-.32-.38-.31.25-.9.17-1.41-.47-3.06-5.41-1.66-6.97-.7-.71.45-2.45 1.34-1.92 2.24.44.75 2.19 3.83 2.88 4.32 1.23 1.04 1.68-.69 2.6.11.33.29-2.42 3.33-3.27 4.3l-.34.42c-.13.24-.27.43-.42.53l-.45.57c-.94 1.17-1.96 2.32-2.91 3.47-1.04-.48-.27-.84-.11-1.59.14-.64-1.54-2.46-2.14-2.43l-16.4.6c3 2.49 10.73 9.05 11.79 9.22 1.06.12 1.15-1.01 2.01-.3.24.19.14.17-.04.39l-3.6 4.37c-1.13-.49-.07-1.54-.82-2.44-.44-.52-12.54-10.74-13.55-10.38-.93.32-.48.53-1.14-.01-.19-.16-.21-.1-.1-.23l2.65-3.21 4.56-5.53c1.18.54.22 2.09 2.03 1.86.49.04 4.41-.17 5.86-.22-.79-.67-3.71-3.18-4.48-3.33-.88-.13-1.25.88-1.92-.09l1.78-2.14c.29-.35 1.32-2.07 1.78-2.14.97-.16.32 1.59.42 1.89.33.71 12.71 11.58 14.16 10.83.82-2.23-8.34-17.76-10.01-16.93-1-.52-.45-.81.07-1.44l2.52-3.02 2.43-2.93c.81-.97.83 1.44 1.41 1.67 1.12.84 16.5 6.98 17.96 5.53.24.09.45.37.65.53zm-13.4 2.88l-7.04-2.96 3.12 5.38c.58-.57 1.23-1.08 1.92-1.52l-.16.11a.9.9 0 0 1 .16-.11c.31-.2.16-.1 0 0 .62-.39 1.3-.7 2-.9z"/><path id="Path 12" fill-rule="evenodd" class="shp1" d="M167.42 81.22c-3.81 4.57-10.47 5.55-15.15 1.69-4.63-3.9-5.01-10.6-1.21-15.23 3.91-4.47 10.42-5.62 15.17-1.66 4.72 3.87 4.98 10.6 1.19 15.2zm-1.59-2.19c2.27-3.24-2.15-6.83-4.55-8.43-2.13-1.43-6.27-3.54-8.38-.97-2.51 3.07 1.42 6.55 3.71 8.21 2.29 1.66 6.55 4.05 9.01 1.46l.05-.05c.41-.52.31-.4.16-.22zm0 0l-.16.22-.05.05.21-.27z"/><path id="Path 13" fill-rule="evenodd" class="shp1" d="M155.58 94.06c-.8 1.89-9.53 12.66-9.87 12.38-.8-.66.04-.84-.29-1.75-.19-.53-11.8-10.23-12.68-10.73-1.02-.59-1.84.67-2.54-.36l5.92-7.13c4.42-5.32 11.13-6.57 16.8-2.31.68.56.35.3.13.11a8.69 8.69 0 0 1 2.53 9.79zm-11.73-7.46c-2.02-.52-5.48.75-7.15 2.59-.49.54 11.77 10.47 12.38 9.89 1.25-1.19.85-.71 1.33-1.3 3.87-4.66-2.18-10.06-6.56-11.18z"/></g></svg>