<svg xmlns="http://www.w3.org/2000/svg" viewBox="0 0 375 194" width="375" height="194"><defs><clipPath id="cp1"><path d="M1 0h373v193H1z"/></clipPath></defs><style>.shp1{fill:#23a9e1}.shp2{fill:#fff}</style><g id="Page 1" clip-path="url(#cp1)"><path id="Path 1" d="M374.29.15H1L161.97 181.1c14.12 15.87 37.22 15.87 51.34 0L374.29.15z" fill="#81b3d3"/><path id="Path 2" class="shp1" d="M87.48 1.59l99.05 116.7L285.18 2.3l-197.7-.71z"/><path id="Path 3" class="shp2" d="M245.04 34.81l-30.37.17c12-13.86 17.4-12.38 30.37-.17zM162.7 45.53h53.36c-3.97-2.47-13.42-14.12-18.62-9.79-.42.36-15.01-17.69-24.59-8.99-8.36 7.59-12.24-1-21.71 5.02-10.8 7.14 6.24 11.35 11.56 13.76z"/><path id="Path 4" fill-rule="evenodd" d="M288.7.18v46.34L187.21 167.31l-.68.84L85.37 45.11V.18H288.7zM126.03 43.23c8.17-14 19.89-16.09 32.49-.95 4.87 6.08 5.11 10.83 8.49 11.08 6.29.45 6.84-7.4 11.9-8.59 5.77-1.35 7.44.99 10.33 2.12 3.1 1.22 5.48.84 6.97 3.82 1.94 3.89 2.15 7.79 8.94 8.91 13.48 2.25 23.38-8.01 37.2-9.91l7.75-9.07c-.32-.34-7.6-7.83-18.89-15.25-10.56-6.95-26.89-15.25-44.69-15.33-17.84-.1-33.94 8.17-44.31 15.13-11.27 7.56-18.36 15.22-18.43 15.29l-.28-.26 2.53 3.01zm-.01 0l60.51 71.87-60.5-71.87h-.01zM92.78 3.74l4.94 5.87V3.74h-4.94zm170.93 20.97l9.94-11.64V3.74h-9.94v20.97zm-12.36 14.46l10.79-12.62V3.74h-10.93v35.29l.14.14zM238.69 28.3c5.07 3.8 8.86 7.21 10.96 9.2V7.02L238.69 28.3zm-13.15-8.62a114.64 114.64 0 0 1 11.28 7.25V5.92l-11.28 13.76zm-11.62-5.65c3.42 1.4 6.64 2.94 9.61 4.54V5.51l-9.61 8.52zm11.18 3.72l11.48-14.01H225.1v14.01zm13.28 7.74l11.2-21.75h-11.2v21.75zm-27.1-21.75V13l1.02.37 10.87-9.63h-11.89zm-11.12 5.95a80.4 80.4 0 0 1 9.55 2.73v-7.4l-9.55 4.67zm-10.11-1.44c2.27.15 4.51.41 6.71.78V5.15l-6.71 3.1zm-14.13.77c2.27-.38 4.58-.65 6.93-.78l-6.93-3.21v3.99zm-12.7 3.31a76.9 76.9 0 0 1 9.45-2.69l-9.45-4.62v7.31zm11.13-8.59h-10.18l10.18 4.97V3.74zm10.98 0h-8.48l8.48 3.92V3.74zm1.88 4.11l8.88-4.11h-8.88v4.11zm11.58.76l9.98-4.87h-9.98v4.87zm-37.13 4.29V3.74h-11.92l10.81 9.58 1.11-.42zm-12.25 5.67a95.95 95.95 0 0 1 9.53-4.59l-9.53-8.45v13.04zm-13.29 8.59a107.8 107.8 0 0 1 11.22-7.43l-11.22-13.8v21.23zm-12.83 11.07c1.66-1.69 5.54-5.43 11.05-9.71L123.29 7.03v31.2zm11.27-34.49h-11.2l11.2 21.78V3.74zm13.28 0h-11.48l11.48 14.12V3.74zm-38.61 0h-9.94v7.73l9.94 11.81V3.74zm1.57 21.4l10.92 12.98V3.74H110.8v21.4zm170.82-21.4h-6.41v7.5l6.41-7.5z" fill="#491213"/><path id="Path 5" class="shp1" d="M178.49 141.98l8.04-13 8.01 13-8.01 13.03-8.04-13.03z"/><path id="Path 6" class="shp2" d="M131.93 64.68c1.02 1.24 1.78 2.57 1.61 4.23-.12 1.16-1.87 3.1-.54 3.69l4.48-5.66c-1.2-.31-10.73-11.7-10.88-12.95l-6.32 3.47c.33 1.32 2.59.01 3.71.09 1.66.12 2.85 1.12 3.91 2.31-3.46 2.89-11.86 10.03-12.75 10.18-.45.07-2.18-1.21-2.2-.12-.01.53 1.7 2.03 2.03 2.42l4.45 5.31c1.24-.56-.22-1.46.41-2.49.47-.74 9.81-8.53 12.09-10.48zm-10.55-13.96c.89-.19 1.25.87 1.92-.11l-4.9-5.84c-.74-.88-1.68-1.83-1.41.04.17 1.26-12.23 11.33-12.99 11.64-.96.39-1.52-.83-2.22.19l4.39 5.22c.49.58.95 1.22 1.49 1.76.68.68.42-1.34.45-1.17-.18-1.02 1.05-1.89 1.71-2.45 3.09-2.72 10.8-9.18 11.56-9.28zm-17.54-1.83c-3.53 1.04-7.3-.33-8.41-4.09-1.09-3.67 1.22-7.51 4.14-9.6 2.88-2.06 7.18-1.94 8.74 1.68.7 1.59.32 3.41-.18 5-.32 1.01-1.2 2 .11 2.58l5.16-6.57c-2.11-1.27-3.03-3.37-4.6-5.19-1.76-2.15-4.13-4.16-6.96-4.57-5.74-.81-11.15 5.11-11.59 10.49-.28 2.91.74 5.69 2.49 8 1.5 1.99 3.73 3.25 4.87 5.51.52.19 5.41-2.07 6.57-2.51-.1-.22-.18-.55-.34-.73-1.52.45 0 0 0 0zm78.6 72.81c-2.3-1.53-8.05-9.37-9.15-10.68l-.65-.78c-.03-.03-.57.45-.5.38-.34.29.27 1.15-.1 1.73-1.59 2.48-11.52 9.97-12.03 10.33-1.11.76-2.33-.32-2.98.63 1.44 1.71 5.56 7.09 6.04 7.16.96.16.29-1.63.42-2 .24-.73 5.26-4.89 7.1-6.42.67-.56 1.37.85 1.77 1.45.66.97.95 2 .6 3.13-.23.74-1.44 1.84-.5 2.35l5.22-6.1c.51-.58-1.13-.07-.93-.17-.74.38-1.44.47-2.13-.06-.19-.14-2.18-2.16-1.98-2.33.86-.72 1.92-1.92 3.03-2.2 1.73-.42 3.17 3.03 3.42 4.26a6.92 6.92 0 0 1-.15 3.5c-.25.77-.98 1.39.03 1.86 1.43-1.95 2.85-3.89 4.26-5.84-.28.01-.55-.05-.79-.2-.25-.17.28.14 0 0z"/><path id="Path 7" fill-rule="evenodd" class="shp2" d="M162.35 113.13a26.8 26.8 0 0 1-.33.29l-.03.02c-5.19 3.7-11.6 3.11-15.58-2.13a10.6 10.6 0 0 1 1.51-14.65c4.87-4.09 11.87-2.87 15.61 2.1a10.7 10.7 0 0 1-1.18 14.37zm-.33.29l.33-.29-.36.31.03-.02zm-1.04-9.29l.08-.18v-.01c1.42-3.42-1.01-6.58-4.71-5.11a14.9 14.9 0 0 0-7.47 7.33c-1.48 3.46 1.08 6.54 4.72 5.11a14.9 14.9 0 0 0 7.38-7.14c-.17.39-.45 1.04.08-.18v-.01l-.08.19zm-11.84-19.9c.15.02.27.03-.04-.01-.31-.03-.21-.02-.06 0-2.95-.34-6.4.64-9.3 1.05-1.99.28-6.69 4.86-6.99 5.72-.11.39.81 2.36-.23 2.17-.33-.06-1.28-1.49-1.53-1.78l-4.98-5.92c.79-1.12 1.35.46 2.44.08.93-.33 4.41-3.37 5.4-4.2 1.98-1.66 3.68-8.46 3.85-8.94.19-.52.26-3.52.18-3.46.84-.7 1.34.63 1.96 1.36l5.49 6.5c-.8 1.15-1.48-.6-2.57.29-.53.44-1.87 4.38-2.31 5.67 1.23-.22 5.86-.93 6.35-1.78.48-.85-.8-1.41.39-1.95l4.45 5.28c-.68 1-1.57.06-2.5-.08zm-.04-.01l.04.01-.1-.01h.06z"/><path id="Path 8" d="M136.58 45.9c-8.08-.34-4.7-7.91.79-9.62 5.23-1.62 16.18 3.44 19.69 6.8-5.57 1.71-12.77 1.46-18.9 1.75-.45-6.24-1.91-4.07-1.58 1.07zM155.59 71c-17.24-.15-5.58-26.65.28-25.05 6.75 2.15 5.99 25.25-.28 25.05zm12.21-8.66c-1.68 5-4.72 5.93-4.38-.14.38-7.01 4.95-5.33 9.85-8.01 4.08-2.24 6.28-10.43 13.29-5.53 3.12 2.19 6.7.36 7.7 3.67-.05-.17-9.09 20.61-4.07 20.61-9.92 0-5.54-11.84-1.74-19.8-3.7 1.77-9.69 13.38-4.77 15.29-2.56 3.37-10.39 7.89-14.47 4.6-3.1-2.5-1.37-6.65-1.41-10.69zm8.21 19.2c-6.98 2.09-16.24-2.41-5.02-4.68 6.97-1.41 14.37 1.56 5.02 4.68.28-.08-.26.09 0 0zm8.74-.28c-1.47-3.31 1.12-7.27 5.36-4.4 3.69 2.51-1.7 6.22-5.36 4.4zm-5.89 9.34c-4.82-1.5-21.08-1.12-10.44-5.53 3.28-1.36 20.31.2 10.44 5.53zm20.86 6.63c-2.87-2.46-5.78-2.59-8.45 0-3.59-6.59-16.64-4.38-22.74-5.31 3.28 8.06 29.73 9.56 31.19 5.31zm-3.8 4.84c-6.3-.29-13.34-1.12-19.29.17 3.72.93 12.79 3.59 4.34 5.84 3.03 4.33 7.95 4.06 11.17.25-1.31-.64-2.02-1.44-3.1-2.11 3.34-.61 6.46-2.54 6.88-4.15zm7.19-7.75c-10.57-6.22-7.9-10.85.71-15.17 4.51-2.26 14.65-10.42 18.89-7.7l-19.6 22.87z" fill="#dc6243"/><path id="Path 9" d="M195.58 79.77c-8.96-9.2 13.38-8.36 16.98-11.59 2.62.87 21.53-16.57 26.14-15.49-3.31 3.89-10.44 16.28-15.55 16.28-3.93 0-7.9-.59-10.94 2.21-4.45 4.1-11.82 6.18-16.63 8.59z" fill="#f49774"/><path id="Path 10" d="M198.52 68.52c-4.91 2.63-9.55-7.82-1.08-6.8 5.63.68 11.33-.47 16.7.45-3.86 4.58-9.42 7.11-15.62 6.35z" fill="#f4b1a4"/><path id="Path 11" class="shp2" d="M223.78 105.08c.38 1.3.6 2.67.43 4.02-.22 1.75-1.96 5.85-4.35 4.68-2.33-1.15-4.38-3.46-6.37-5.1 1.6-1.88 3.01-3.5 5.71-2.59.74.24 1.37-.08.59-.53-.81-.47-6.22-3.93-6.52-3.6-.54.63 1.06 1.74.44 2.95-.45.89-1.22 1.67-1.86 2.44-1.44-1.22-3.85-2.51-2.11-4.51a7.38 7.38 0 0 1 4.19-2.69c1.13-.23 3.68.78 4.01-.44l-6.51-3.13c.35 1.59-6.7 9.04-8.26 10.92-.23.28-1.32 1.22-1.33 1.6-.02.86 1.24.19 1.31.17.98-.36 13.64 10.21 13.95 10.94.2.56-.44 1.15-.06 1.46-.02-.02.45.43.51.37.78-.94 9.04-11.95 10.74-12.43-1.58-2.43-3.17-4.86-4.73-7.31-1.18.52-.04 1.9.22 2.78zm-12.32 13.41c-4.16-2.68-11.2 2.56-12.25 3.06-2.08.98-3.58-1.09-2.51-3 .94-1.66 2.79-2.47 4.62-2.58.56-.03 2.7.39 2.92.05.26-.4.46-.44.09-.69l-5.14-3.47c-.35 2.11-2.77 3.46-4.15 4.89-1.65 1.7-3.04 3.86-3.04 6.31a6.07 6.07 0 0 0 3.35 5.32c2.27 1.18 4.64.23 6.65-1.02 1.25-.79 2.51-1.72 3.85-2.34 1.99-.94 4.61-.13 3.9 2.53a7.16 7.16 0 0 1-4.81 4.68 6.54 6.54 0 0 1-3.74-.18c-.86-.28-1.99-1.46-2.46-.22l6.96 5.08c.21-1.52 1.05-2.18 2.18-3.13a23.3 23.3 0 0 0 3.98-4.26c2.32-3.39 3.08-8.13-.4-11.03zm0 0c1.85 1.19-1.19-.99 0 0zm58.46-74.63c-.01.01-.01.01 0 0z"/><path id="Path 12" fill-rule="evenodd" class="shp2" d="M285.49 39.98l-6.6 7.94c-.13.15-.45-.26-.54-.33-.37-.31.25-.89.17-1.41-.47-3.06-5.41-1.66-6.97-.69-.71.44-2.45 1.34-1.92 2.23.44.75 2.19 3.83 2.88 4.33 1.23 1.04 1.68-.7 2.6.1.33.29-2.42 3.33-3.27 4.3l-.34.43c-.13.24-.27.42-.42.53l-.45.56c-.94 1.17-1.95 2.32-2.91 3.47-1.04-.47-.27-.83-.11-1.59.14-.64-1.54-2.45-2.14-2.43l-16.4.61c3 2.48 10.73 9.04 11.79 9.22 1.06.11 1.15-1.02 2.01-.31.24.19.14.18-.04.4l-3.6 4.36c-1.13-.49-.07-1.54-.82-2.44-.44-.52-12.54-10.73-13.55-10.38-.93.33-.48.54-1.14-.01-.19-.16-.21-.1-.1-.22l2.65-3.22 4.56-5.53c1.18.54.22 2.09 2.03 1.87.49.03 4.41-.18 5.86-.23-.79-.67-3.71-3.17-4.48-3.33-.88-.12-1.25.89-1.92-.08l1.78-2.15c.29-.35 1.32-2.07 1.78-2.14.97-.15.32 1.6.42 1.89.33.72 12.71 11.58 14.16 10.83.82-2.23-8.34-17.76-10.01-16.92-1-.53-.45-.82.07-1.44a670.1 670.1 0 0 0 2.51-3.03l2.44-2.93c.81-.97.83 1.44 1.41 1.67 1.12.85 16.5 6.99 17.96 5.53.23.09.45.37.65.54zm-13.4 2.87c-2.34-.99-4.69-1.98-7.05-2.96l3.13 5.39c.58-.58 1.23-1.08 1.92-1.53l-.17.11.17-.11c.31-.2.16-.1 0 0 .62-.39 1.29-.7 2-.9z"/><path id="Path 13" fill-rule="evenodd" class="shp2" d="M251.78 81.38c-3.8 4.56-10.46 5.54-15.14 1.69-4.64-3.91-5.02-10.61-1.21-15.23 3.91-4.47 10.42-5.62 15.17-1.67 4.72 3.87 4.98 10.6 1.18 15.21zm-1.58-2.2c2.27-3.24-2.15-6.82-4.55-8.43-2.14-1.43-6.28-3.54-8.39-.96-2.51 3.06 1.42 6.55 3.72 8.2 2.29 1.66 6.54 4.05 9.01 1.47l.05-.06c.41-.51.31-.4.16-.22zm0 0l-.16.22-.06.05.22-.27z"/><path id="Path 14" fill-rule="evenodd" class="shp2" d="M239.95 94.21c-.8 1.89-9.53 12.67-9.87 12.38-.8-.65.04-.83-.29-1.75-.19-.53-11.81-10.23-12.68-10.73-1.02-.59-1.84.67-2.54-.35a3725 3725 0 0 1 5.92-7.14c4.41-5.32 11.13-6.57 16.8-2.31.68.56.35.3.13.11a8.69 8.69 0 0 1 2.53 9.79zm-11.73-7.46c-2.02-.52-5.48.76-7.15 2.59-.49.54 11.77 10.48 12.38 9.89 1.24-1.19.85-.71 1.33-1.3 3.87-4.66-2.18-10.06-6.56-11.18z"/></g></svg>