<svg xmlns="http://www.w3.org/2000/svg" viewBox="0 0 204 169" width="204" height="169"><defs><clipPath id="cp1"><path d="M0 0h203v168H0z"/></clipPath></defs><style>.shp0{fill:#23a9e1}.shp1{fill:#491213}.shp2{fill:#fff}</style><g id="Page 1" clip-path="url(#cp1)"><path id="Path 1" class="shp0" d="M0 .03l101.16 118.11L203.34.03H0z"/><path id="Path 2" fill-rule="evenodd" class="shp1" d="M203.34.03v46.33l-101.5 120.79-.68.85L0 44.96V.03h203.34zM101.16 114.96l.53-.64-.53.63-60.5-71.87c8.18-14 19.89-16.1 32.49-.95 4.87 6.08 5.11 10.83 8.49 11.07 6.29.45 6.85-7.4 11.91-8.58 5.77-1.36 7.43.99 10.32 2.12 3.1 1.21 5.48.83 6.97 3.82 1.95 3.88 2.15 7.78 8.94 8.91 13.48 2.24 23.38-8.01 37.21-9.91l39.26-45.97H7.42l93.74 111.37z"/><path id="Path 3" class="shp2" d="M46.56 64.53c1.02 1.23 1.78 2.57 1.61 4.23-.12 1.16-1.87 3.1-.54 3.69l4.48-5.66c-1.2-.31-10.73-11.7-10.88-12.95l-6.32 3.47c.33 1.32 2.59.01 3.71.09 1.66.12 2.85 1.12 3.91 2.3-3.46 2.9-11.87 10.04-12.75 10.18-.46.08-2.18-1.2-2.21-.11-.01.53 1.71 2.03 2.03 2.42l4.46 5.31c1.24-.57-.22-1.46.41-2.49.47-.75 9.81-8.53 12.09-10.48zM36.01 50.57c.89-.19 1.25.87 1.92-.11l-4.9-5.84c-.74-.88-1.68-1.83-1.41.04.18 1.26-12.23 11.33-12.99 11.64-.95.39-1.51-.83-2.21.19l4.38 5.22c.49.58.96 1.22 1.5 1.76.67.68.41-1.34.44-1.17-.18-1.02 1.06-1.89 1.71-2.45 3.09-2.72 10.8-9.18 11.56-9.28zm-17.54-1.83c-3.54 1.04-7.3-.33-8.41-4.09-1.09-3.67 1.22-7.51 4.14-9.6 2.88-2.06 7.18-1.94 8.74 1.67.7 1.6.32 3.42-.18 5.01-.33 1.01-1.2 2 .11 2.58l5.16-6.57c-2.11-1.27-3.04-3.37-4.6-5.2-1.76-2.14-4.13-4.15-6.96-4.56-5.74-.81-11.15 5.11-11.59 10.49-.28 2.91.74 5.69 2.49 8 1.5 1.99 3.73 3.25 4.87 5.51.52.19 5.41-2.07 6.57-2.51-.1-.22-.18-.55-.34-.73-1.52.45 0 0 0 0zm78.6 72.81c-2.3-1.54-8.05-9.38-9.15-10.68l-.65-.78c-.03-.04-.57.44-.49.37-.35.3.26 1.15-.11 1.73-1.59 2.48-11.52 9.97-12.03 10.33-1.11.77-2.33-.32-2.98.63 1.44 1.71 5.56 7.08 6.04 7.16.96.16.29-1.63.42-2 .25-.74 5.27-4.89 7.1-6.42.67-.56 1.38.85 1.78 1.45.65.96.95 2 .59 3.13-.23.74-1.43 1.84-.5 2.35l5.23-6.1c.5-.58-1.13-.07-.94-.17-.74.38-1.44.47-2.13-.06-.19-.14-2.17-2.16-1.98-2.33.87-.72 1.92-1.93 3.04-2.2 1.72-.43 3.16 3.03 3.42 4.26a6.93 6.93 0 0 1-.15 3.5c-.25.77-.98 1.39.03 1.86l4.27-5.84a1.4 1.4 0 0 1-.81-.19c-.25-.17.28.14 0 0z"/><path id="Path 4" fill-rule="evenodd" class="shp2" d="M76.98 112.98c.52-.44 1.25-1.05-.34.29l-.02.02c-5.18 3.7-11.6 3.11-15.58-2.13a10.63 10.63 0 0 1 1.51-14.65c4.87-4.09 11.88-2.88 15.61 2.1a10.7 10.7 0 0 1-1.18 14.37zm-.34.29l.34-.29-.36.31.02-.02zm-.95-9.48v.01l-.09.19.09-.2zm-4.71-5.11a14.94 14.94 0 0 0-7.47 7.33c-1.48 3.46 1.08 6.54 4.72 5.11a14.94 14.94 0 0 0 7.37-7.13c-.17.39-.43 1.02.09-.19v-.01c1.43-3.42-1-6.58-4.71-5.11zm-7.19-14.6l-.06-.01a4.3 4.3 0 0 0-.11-.01c-2.93-.32-6.36.66-9.25 1.07-1.99.27-6.69 4.85-6.99 5.71-.11.39.81 2.36-.23 2.17-.33-.06-1.28-1.48-1.53-1.78l-4.98-5.92c.79-1.12 1.35.46 2.44.08.93-.33 4.41-3.36 5.4-4.19 1.98-1.67 3.68-8.48 3.85-8.95.19-.51.26-3.52.18-3.46.84-.7 1.34.63 1.96 1.36l5.49 6.51c-.8 1.14-1.48-.61-2.57.28-.52.44-1.86 4.38-2.31 5.67 1.23-.22 5.86-.93 6.35-1.78.48-.85-.81-1.41.39-1.95l4.45 5.28c-.67 1-1.55.07-2.48-.08zm-.06-.01l.06.01-.17-.02.11.01zm74.46 18.08c1.56 2.44 3.15 4.87 4.73 7.3-1.7.48-9.96 11.5-10.74 12.44-.05.06-.5-.37-.51-.37-.38-.32.26-.9.06-1.46-.32-.73-12.98-11.31-13.95-10.95-.07.03-1.33.69-1.31-.16.01-.38 1.1-1.32 1.33-1.6 1.56-1.88 8.61-9.33 8.26-10.93l6.52 3.13c-.34 1.23-2.89.22-4.02.45a7.36 7.36 0 0 0-4.19 2.68c-1.74 2.01.67 3.3 2.11 4.52.65-.77 1.41-1.55 1.87-2.44.61-1.21-.99-2.33-.45-2.95.3-.33 5.72 3.13 6.52 3.6.78.45.15.77-.59.52-2.7-.9-4.11.72-5.71 2.59 1.99 1.65 4.04 3.96 6.37 5.11 2.39 1.17 4.14-2.93 4.35-4.68a9.95 9.95 0 0 0-.43-4.02c-.26-.88-1.4-2.27-.22-2.78zm-6.52 19.37c0-.01 0-.01 0 0zm-5.17 7.84a23.35 23.35 0 0 1-3.99 4.26c-1.13.95-1.96 1.61-2.17 3.13l-6.96-5.08c.47-1.24 1.59-.06 2.46.22 1.2.4 2.51.51 3.74.18a7.16 7.16 0 0 0 4.81-4.68c.7-2.66-1.92-3.47-3.91-2.53-1.34.62-2.59 1.55-3.85 2.34-2.01 1.25-4.37 2.2-6.64 1.02a6.06 6.06 0 0 1-3.36-5.32c0-2.45 1.4-4.6 3.05-6.31 1.38-1.43 3.79-2.77 4.15-4.88l5.13 3.46c.37.25.17.29-.08.7-.22.34-2.37-.09-2.92-.05-1.84.11-3.68.91-4.62 2.57-1.08 1.92.42 3.99 2.5 3.01 1.05-.51 8.1-5.74 12.25-3.06 3.49 2.9 2.73 7.64.41 11.02z"/><path id="Path 5" fill-rule="evenodd" class="shp2" d="M200.11 39.83l-6.6 7.93c-.13.16-.45-.25-.54-.32-.37-.31.25-.89.17-1.41-.47-3.06-5.41-1.66-6.96-.7-.72.45-2.46 1.34-1.93 2.24.44.75 2.19 3.83 2.89 4.33 1.22 1.04 1.67-.7 2.59.1.33.29-2.42 3.33-3.27 4.31l-.34.42c-.12.24-.26.42-.41.53l-.46.56c-.94 1.17-1.95 2.32-2.91 3.47-1.04-.47-.27-.83-.11-1.59.14-.64-1.54-2.45-2.14-2.43l-16.39.61c3 2.48 10.72 9.04 11.79 9.22 1.05.11 1.15-1.02 2-.31.24.19.14.18-.04.39l-3.59 4.37c-1.14-.49-.07-1.54-.83-2.44-.43-.52-12.53-10.73-13.55-10.38-.93.33-.47.53-1.13-.01-.2-.16-.21-.09-.1-.23l2.65-3.21 4.55-5.53c1.19.54.23 2.09 2.03 1.86.5.04 4.42-.17 5.87-.22-.79-.67-3.71-3.17-4.48-3.33-.89-.13-1.25.89-1.92-.08l1.78-2.15c.29-.35 1.32-2.07 1.78-2.14.97-.15.32 1.6.42 1.89.33.71 12.71 11.58 14.16 10.83.82-2.23-8.34-17.76-10.01-16.92-1-.53-.45-.82.07-1.44l2.52-3.03 2.43-2.93c.81-.97.83 1.44 1.41 1.67 1.12.85 16.5 6.99 17.96 5.53.23.09.45.37.64.54zm-13.39 2.87c-2.34-.99-4.69-1.98-7.05-2.96l3.13 5.39c.58-.58 1.23-1.09 1.92-1.52l-.17.1.17-.11c.31-.2.16-.1 0 0 .62-.39 1.29-.7 2-.9z"/><path id="Path 6" fill-rule="evenodd" class="shp2" d="M166.41 81.22c-3.8 4.57-10.46 5.55-15.14 1.7-4.63-3.91-5.01-10.61-1.21-15.23 3.91-4.48 10.42-5.63 15.17-1.67 4.72 3.87 4.98 10.6 1.18 15.2zm-1.58-2.19c2.27-3.24-2.15-6.83-4.55-8.43-2.13-1.43-6.27-3.54-8.38-.97-2.51 3.07 1.42 6.55 3.71 8.21 2.3 1.66 6.55 4.05 9.01 1.46l.05-.05c.41-.51.31-.4.16-.22zm0 0l-.16.22-.05.06.21-.28z"/><path id="Path 7" fill-rule="evenodd" class="shp2" d="M154.58 94.06c-.8 1.89-9.53 12.66-9.87 12.37-.8-.65.04-.83-.29-1.75-.19-.52-11.8-10.23-12.68-10.73-1.02-.58-1.84.68-2.54-.35l5.92-7.13c4.42-5.32 11.13-6.57 16.8-2.31l.13.11a8.69 8.69 0 0 1 2.53 9.79zm-11.73-7.46c-2.02-.52-5.48.76-7.15 2.59-.49.54 11.77 10.47 12.38 9.89 1.25-1.19.85-.71 1.33-1.3 3.87-4.66-2.18-10.06-6.56-11.18z"/><path id="Path 8" class="shp1" d="M101.16 114.99l.68-.82 55.15-64.58c-13.83 1.9-23.73 12.16-37.21 9.91-6.79-1.12-6.99-5.02-8.94-8.91-1.49-2.98-3.87-2.6-6.97-3.82-2.88-1.13-4.55-3.47-10.32-2.12-5.06 1.19-5.62 9.04-11.91 8.59-3.38-.25-3.62-5-8.49-11.08-12.6-15.14-24.31-13.05-32.49.95l60.5 71.88z"/><path id="Path 9" class="shp0" d="M93.12 141.86l8.04-13 8.01 13-8.01 13.03-8.04-13.03z"/><path id="Path 10" class="shp2" d="M46.56 64.56c1.02 1.24 1.78 2.57 1.61 4.23-.12 1.16-1.87 3.1-.54 3.7l4.48-5.67c-1.2-.3-10.73-11.7-10.88-12.95l-6.32 3.47c.33 1.32 2.59.01 3.71.09 1.66.12 2.85 1.12 3.91 2.31-3.46 2.9-11.87 10.03-12.75 10.18-.45.07-2.18-1.2-2.2-.11-.02.52 1.7 2.02 2.02 2.42l4.46 5.3c1.24-.56-.22-1.46.41-2.48.47-.75 9.81-8.54 12.09-10.49zM36.01 50.6c.89-.19 1.25.87 1.92-.11l-4.9-5.83c-.74-.89-1.68-1.84-1.41.03.18 1.26-12.23 11.33-12.99 11.64-.96.4-1.51-.83-2.22.2l4.39 5.21c.49.59.95 1.23 1.5 1.77.67.67.41-1.35.44-1.17-.18-1.03 1.06-1.9 1.71-2.46 3.09-2.72 10.8-9.18 11.56-9.28zm-17.54-1.83c-3.54 1.04-7.3-.33-8.41-4.09-1.09-3.67 1.22-7.51 4.14-9.6 2.88-2.06 7.18-1.94 8.74 1.68.7 1.6.32 3.41-.18 5-.33 1.01-1.2 2 .11 2.58l5.16-6.57c-2.11-1.27-3.04-3.37-4.6-5.19-1.76-2.14-4.13-4.16-6.96-4.57-5.74-.81-11.15 5.11-11.59 10.49-.28 2.91.74 5.7 2.49 8 1.5 1.99 3.73 3.25 4.87 5.51.52.19 5.41-2.07 6.57-2.51-.1-.22-.18-.55-.34-.73-1.52.45 0 0 0 0zm78.6 72.82c-2.3-1.54-8.05-9.38-9.15-10.69l-.65-.78c-.03-.03-.57.45-.5.38-.34.29.27 1.15-.1 1.73-1.59 2.48-11.52 9.97-12.03 10.33-1.11.76-2.33-.32-2.98.63 1.44 1.71 5.56 7.08 6.04 7.16.96.16.29-1.63.42-2 .25-.74 5.27-4.89 7.1-6.42.67-.56 1.37.85 1.77 1.45.66.96.95 2 .6 3.13-.23.74-1.43 1.84-.5 2.35l5.23-6.1c.5-.58-1.14-.07-.94-.17-.74.38-1.44.47-2.13-.06-.19-.14-2.18-2.16-1.98-2.33.86-.72 1.92-1.93 3.04-2.2 1.72-.43 3.16 3.03 3.41 4.26a6.82 6.82 0 0 1-.15 3.5c-.25.77-.97 1.39.04 1.86l4.26-5.84c-.29.01-.56-.05-.8-.19-.25-.17.28.14 0 0z"/><path id="Path 11" fill-rule="evenodd" class="shp2" d="M76.98 113.01a26.8 26.8 0 0 1-.36.31c-5.19 3.71-11.6 3.11-15.58-2.13a10.62 10.62 0 0 1 1.51-14.65c4.87-4.09 11.88-2.87 15.61 2.11a10.7 10.7 0 0 1-1.18 14.36zm-.33.29zm-.96-9.48v.01l-.08.18.08-.19zm-4.71-5.11a14.92 14.92 0 0 0-7.47 7.34c-1.48 3.45 1.08 6.53 4.72 5.1a14.9 14.9 0 0 0 7.38-7.14c-.17.39-.45 1.05.08-.18v-.01c1.43-3.41-1-6.58-4.71-5.11zm-7.21-14.6c.15.02.28.03-.04 0a2.38 2.38 0 0 1-.06-.01c-2.95-.33-6.4.65-9.3 1.05-1.99.28-6.69 4.86-6.99 5.72-.11.39.81 2.36-.23 2.17-.33-.06-1.28-1.49-1.53-1.78l-4.98-5.92c.79-1.12 1.35.46 2.44.08.93-.33 4.41-3.37 5.4-4.19 1.98-1.67 3.68-8.47 3.85-8.94.19-.53.26-3.53.18-3.47.84-.7 1.34.63 1.96 1.36l5.49 6.51c-.8 1.14-1.48-.61-2.57.28-.52.44-1.87 4.38-2.31 5.67 1.23-.22 5.86-.93 6.35-1.78.48-.85-.8-1.41.39-1.94l4.45 5.27c-.68 1-1.56.06-2.5-.08zm-.04 0h.04l-.1-.01.06.01z"/><path id="Path 12" d="M51.21 45.78c-8.08-.33-4.7-7.91.79-9.62 5.23-1.62 16.18 3.44 19.69 6.8-5.57 1.71-12.77 1.46-18.89 1.75-.46-6.24-1.92-4.07-1.59 1.07zm2.03 9.7c-4.08-3.16-2.79-10.53 3.53-8.29 8.01 4.17-1.71 6.48-3.53 8.29 0 0 .09-.08 0 0zm16.98 15.4c-17.24-.14-5.58-26.65.28-25.04 6.75 2.14 5.99 25.24-.28 25.04zm12.21-8.66c-1.68 5-4.72 5.94-4.38-.14.39-7.01 4.96-5.32 9.86-8.01 4.08-2.24 6.28-10.43 13.28-5.53 3.12 2.19 6.7.36 7.7 3.67-.05-.17-9.09 20.61-4.06 20.61-9.92 0-5.54-11.84-1.75-19.79-3.69 1.77-9.68 13.37-4.76 15.28-2.56 3.37-10.39 7.89-14.47 4.6-3.1-2.5-1.38-6.65-1.42-10.69zm8.21 19.21c-6.98 2.09-16.24-2.42-5.02-4.68 6.97-1.41 14.37 1.55 5.02 4.68.28-.09-.26.08 0 0zm8.74-.29c-1.47-3.31 1.12-7.27 5.36-4.39 3.69 2.5-1.7 6.21-5.36 4.39zm-5.89 9.34c-4.82-1.49-21.08-1.12-10.44-5.53 3.28-1.36 20.31.2 10.44 5.53zm6.43-.71c-.02-1.92-1.03-5.35 2.71-3.89 4.47 1.76-2.71 5.3-2.71 3.89 0 0 0-.33 0 0zm14.44 7.34c-2.88-2.46-5.79-2.59-8.46 0-3.59-6.59-16.64-4.38-22.73-5.3 3.27 8.05 29.73 9.56 31.19 5.3zm-3.81 4.85c-6.3-.3-13.34-1.13-19.29.16 3.72.94 12.79 3.59 4.34 5.84 3.03 4.34 7.95 4.06 11.17.26-1.31-.65-2.02-1.44-3.1-2.12 3.34-.61 6.46-2.53 6.88-4.14zm7.19-7.76c-10.57-6.22-7.9-10.85.71-15.17 4.51-2.26 14.65-10.42 18.89-7.7l-19.6 22.87z" fill="#dc6243"/><path id="Path 13" d="M110.21 79.65c-8.96-9.2 13.38-8.36 16.97-11.59 2.63.87 21.54-16.57 26.15-15.48-3.31 3.88-10.44 16.27-15.55 16.27-3.93 0-7.9-.59-10.95 2.21-4.44 4.1-11.81 6.18-16.62 8.59z" fill="#f49774"/><path id="Path 14" d="M113.15 68.4c-4.91 2.64-9.55-7.82-1.08-6.8 5.63.68 11.33-.47 16.7.45-3.86 4.59-9.42 7.11-15.62 6.35z" fill="#f4b1a4"/><path id="Path 15" class="shp2" d="M138.41 104.96c.38 1.3.6 2.67.43 4.02-.21 1.75-1.96 5.85-4.35 4.68-2.33-1.15-4.38-3.45-6.37-5.1 1.6-1.87 3.01-3.5 5.71-2.59.74.24 1.37-.07.59-.53-.8-.46-6.22-3.93-6.52-3.59-.54.62 1.06 1.73.44 2.94-.45.9-1.22 1.67-1.86 2.44-1.44-1.22-3.85-2.51-2.11-4.51a7.38 7.38 0 0 1 4.19-2.69c1.13-.22 3.68.78 4.01-.44l-6.51-3.13c.35 1.59-6.7 9.05-8.26 10.92-.23.28-1.32 1.22-1.33 1.6-.02.86 1.24.19 1.31.17.97-.37 13.63 10.21 13.95 10.94.2.56-.44 1.15-.06 1.46-.02-.02.46.43.51.37.78-.94 9.04-11.95 10.74-12.43-1.58-2.43-3.17-4.87-4.73-7.31-1.18.52-.04 1.9.22 2.78zm-12.32 13.41c-4.16-2.68-11.19 2.56-12.25 3.06-2.08.98-3.58-1.08-2.5-3 .93-1.66 2.78-2.47 4.62-2.58.55-.03 2.7.39 2.92.05.25-.4.45-.44.08-.69l-5.14-3.47c-.35 2.11-2.77 3.46-4.15 4.88-1.64 1.71-3.04 3.87-3.04 6.32a6.06 6.06 0 0 0 3.36 5.32c2.27 1.18 4.63.23 6.64-1.02 1.26-.79 2.51-1.72 3.85-2.35 1.99-.93 4.61-.12 3.91 2.54a7.18 7.18 0 0 1-4.81 4.68 6.57 6.57 0 0 1-3.75-.18c-.86-.28-1.98-1.47-2.45-.22l6.96 5.07c.21-1.52 1.04-2.18 2.17-3.12a23.35 23.35 0 0 0 3.99-4.26c2.32-3.39 3.07-8.13-.41-11.03zm0 0c1.85 1.2-1.18-.99 0 0zm58.46-74.63c-.01.01-.01.01 0 0z"/><path id="Path 16" fill-rule="evenodd" class="shp2" d="M200.12 39.86l-6.6 7.94c-.13.16-.45-.25-.54-.33-.38-.31.25-.89.17-1.41-.47-3.06-5.42-1.66-6.97-.69-.71.44-2.45 1.34-1.93 2.24.44.74 2.19 3.82 2.89 4.32 1.23 1.04 1.67-.69 2.6.11.33.29-2.42 3.33-3.27 4.3l-.34.42c-.13.24-.27.43-.42.53l-.45.56c-.95 1.17-1.96 2.32-2.92 3.47-1.03-.47-.27-.83-.1-1.59.14-.64-1.54-2.45-2.14-2.43l-16.4.61c3 2.48 10.73 9.04 11.79 9.22 1.05.12 1.15-1.01 2.01-.31.24.2.14.18-.05.4l-3.59 4.37c-1.13-.5-.07-1.55-.82-2.45-.44-.51-12.54-10.73-13.56-10.38-.92.33-.47.54-1.13-.01-.2-.16-.21-.09-.1-.22l2.65-3.22 4.55-5.52c1.19.53.23 2.08 2.03 1.86.5.03 4.42-.17 5.87-.23-.79-.66-3.71-3.17-4.48-3.33-.88-.12-1.25.89-1.92-.08l1.78-2.14c.29-.36 1.32-2.08 1.78-2.15.97-.15.32 1.6.42 1.89.33.72 12.71 11.58 14.16 10.83.82-2.23-8.34-17.76-10.01-16.92-1-.52-.45-.81.07-1.44a670.1 670.1 0 0 0 2.51-3.03l2.44-2.92c.81-.98.83 1.43 1.41 1.66 1.12.85 16.5 6.99 17.96 5.53.23.09.45.38.65.54zm-13.4 2.88c-2.34-1-4.69-1.98-7.05-2.97l3.13 5.39c.58-.58 1.23-1.08 1.92-1.52l-.17.1.17-.11c.31-.19.16-.09 0 0 .62-.39 1.29-.7 2-.89z"/><path id="Path 17" fill-rule="evenodd" class="shp2" d="M166.41 81.26c-3.8 4.57-10.46 5.54-15.14 1.69-4.63-3.9-5.02-10.61-1.21-15.23 3.91-4.47 10.4-5.62 15.15-1.68-.4-.34 2.31 1.89.05.04 4.69 3.87 4.94 10.58 1.15 15.18zm-1.58-2.2c2.27-3.24-2.15-6.82-4.55-8.43-2.14-1.42-6.27-3.54-8.38-.96-2.51 3.07 1.42 6.55 3.71 8.21 2.29 1.65 6.54 4.04 9.01 1.46l.05-.06c.41-.51.31-.4.16-.22zm0 0l-.16.22-.05.06.21-.28z"/><path id="Path 18" fill-rule="evenodd" class="shp2" d="M154.58 94.09c-.8 1.89-9.53 12.67-9.87 12.38-.8-.65.04-.83-.29-1.75-.19-.53-11.8-10.23-12.68-10.73-1.02-.59-1.84.67-2.54-.35l5.92-7.14c4.42-5.32 11.13-6.56 16.8-2.31l.13.11a8.69 8.69 0 0 1 2.53 9.79zm-11.73-7.46c-2.02-.52-5.48.76-7.15 2.59-.49.54 11.77 10.48 12.38 9.89 1.24-1.19.85-.71 1.33-1.3 3.87-4.66-2.18-10.06-6.56-11.18z"/></g></svg>