<svg xmlns="http://www.w3.org/2000/svg" viewBox="0 0 65 41" width="65" height="41"><defs><path d="M1 0h64v40H1z"/></defs><path id="Path 1" fill-rule="evenodd" d="M65 6v28c0 3.3-2.7 6-6 6H7c-3.3 0-6-2.7-6-6V6c0-3.3 2.7-6 6-6h52c3.3 0 6 2.7 6 6zM32.5 30.63l-.92-3.69a7 7 0 0 1-1.79.76c-.68.2-1.52.3-2.51.3a6.3 6.3 0 0 1-2.79-.58 5.42 5.42 0 0 1-2.02-1.62 7.03 7.03 0 0 1-1.21-2.52c-.26-.98-.4-2.07-.4-3.27 0-2.73.56-4.76 1.67-6.06A5.55 5.55 0 0 1 26.95 12c.99 0 1.83.05 2.53.16a6.7 6.7 0 0 1 1.8.53l.89-3.83a11.2 11.2 0 0 0-2.26-.63c-.92-.18-2.04-.27-3.36-.27-1.23 0-2.47.21-3.7.62a8.95 8.95 0 0 0-3.36 2.01 10.4 10.4 0 0 0-2.45 3.71 15.23 15.23 0 0 0-.94 5.7c0 2.18.28 4.04.84 5.57a10.37 10.37 0 0 0 2.27 3.74 8.42 8.42 0 0 0 3.29 2.08c1.24.43 2.56.65 3.95.65 1.15 0 2.27-.12 3.36-.33a6.96 6.96 0 0 0 2.69-1.08zm17.4 0l-.93-3.69a7 7 0 0 1-1.79.76c-.68.2-1.52.3-2.51.3a6.3 6.3 0 0 1-2.79-.58 5.42 5.42 0 0 1-2.02-1.62 7.02 7.02 0 0 1-1.2-2.52 12.3 12.3 0 0 1-.4-3.27c0-2.73.55-4.76 1.67-6.06A5.51 5.51 0 0 1 44.34 12c.99 0 1.84.05 2.53.16.7.11 1.3.29 1.8.53l.9-3.83a11.3 11.3 0 0 0-2.27-.63c-.91-.18-2.03-.27-3.36-.27-1.23 0-2.46.21-3.7.62a9.1 9.1 0 0 0-3.36 2.01c-1 .94-1.81 2.17-2.44 3.71a15.03 15.03 0 0 0-.94 5.7c0 2.18.28 4.04.84 5.57a10.36 10.36 0 0 0 2.26 3.74 8.45 8.45 0 0 0 3.3 2.08c1.24.43 2.56.65 3.95.65 1.14 0 2.26-.12 3.35-.33a7.07 7.07 0 0 0 2.7-1.08z"/></svg>