<svg xmlns="http://www.w3.org/2000/svg" viewBox="0 0 921 701" width="921" height="701"><defs><clipPath id="cp1"><path d="M1 1h920v700H1z"/></clipPath></defs><style>.shp2{fill:#fff}</style><g id="Page 1" clip-path="url(#cp1)"><path id="Path 1" fill-rule="evenodd" d="M334.08 142.92c-3.06 3.63-8.7 5.82-12.27 5.82h-1.32c-6.48 8.2-17.09 6.7-17.08-.93-3.7 3.55-7.54 6.17-11.02 6.17-4.84 0-6.62-4.09-4.09-8.52l12.04-20.85h-5.47l1.73-2.88h5.41l5.64-9.79h5.99l-5.64 9.79h4.95l-1.73 2.88h-4.89l-12.84 22.4c-1.38 2.36-.63 3.28.69 3.28 2.65 0 6.85-3.97 11.17-8.98l.31-.36 2.45-4.19 2.94-5.13c3.45-5.99 7.02-7.83 11.63-7.83 5.65 0 8.98 5.93 5.36 12.21l-5.65 9.73c3-.06 6.34-1.5 9.05-4.43l.4-.46a5.1 5.1 0 0 1 2.24 2.07zm-10.65-9.15c3.63-6.22-2.13-9.04-6.33-1.9l-2.88 4.9-4.55 7.88c-3.57 6.22 3.28 7.14 6.11 2.31l.05-.12a4 4 0 0 1-.57-2.02 3.54 3.54 0 0 1 3.51-3.57h.29l4.37-7.48zm93.56 9.15c-4.95 5.76-11.69 11.06-18.49 11.06-4.8 0-7.82-2.71-8.11-6.43-3.77 3.68-7.73 6.43-11.29 6.43-4.83 0-6.62-4.09-4.09-8.53l7.78-13.53c2.59-4.43-1.5-5.93-10.71 5.64l-9.1 15.84h-6.04l1.54-2.68c-2.61 1.98-5.22 3.25-7.64 3.25-4.84 0-6.63-4.09-4.09-8.52l12.03-20.85h-5.47l1.73-2.88h5.41l5.65-9.79h5.99l-5.65 9.79h4.95l-1.72 2.88h-4.9L351.93 147c-1.38 2.36-.63 3.28.69 3.28 2.65 0 6.86-3.97 11.17-8.98l.34-.38 16.71-28.98h5.99l-9.56 16.64c2.99-3.11 5.76-4.55 8.35-4.55 3.34 0 5.81 3.28 3.22 7.83L380.2 147c-1.38 2.36-.63 3.28.7 3.28 2.65 0 6.85-3.97 11.17-8.98l.34-.39 5.82-9.97c2.53-4.38 6.39-6.91 11.23-6.91 4.89 0 8 4.14 4.78 9.67l-.87 1.5c-4.49 7.77-11.75 8.52-15.61 6.91l-.57 1.04c-2.77 4.84-.58 7.14 3.11 7.14 4.2 0 9.73-3.97 14.05-8.98l.4-.46a5.04 5.04 0 0 1 2.24 2.07zm-17.5-3.74c2.25.81 6.11.92 8.99-3.97l.86-1.5c3.57-6.22-2.53-7.2-5.99-1.27l-3.86 6.74zm235.85 3.74c-4.5 5.24-10.54 10.08-16.64 10.88-.06 0-.12.06-.18.06-.57.06-1.09.12-1.67.12-5.47 0-6.56-4.84-6.56-4.84l3.74-1.96s.81 2.19 2.82 2.19c5.7 0 4.43-11.17 6.8-17.39-2.14 2.82-5.13 7.02-8.53 10.94h.01c-4.96 5.76-10.66 11.06-15.61 11.06-3.8 0-5.7-2.54-5.13-5.76-2.88 2.76-6.56 5.76-9.84 5.76-3.43 0-4.91-2.8-3.3-6.96a16.65 16.65 0 0 1-6.66 1.71h-1.32c-6.55 8.29-17.32 6.68-17.09-1.16-4.17 3.67-9.01 6.41-13.89 6.41-4.82 0-7.85-2.73-8.11-6.48-4.98 4.81-9.75 7.71-14.64 9.24l-4.54 7.89c-4.32 7.36-13.13 6.16-13.13.4 0-4.49 5.07-7.78 13.13-10.25l1.67-2.82c-2.02 1.27-4.04 2.02-5.7 2.02-3.44 0-5.3-2.08-5.2-4.86-3.25 2.86-6.57 4.86-9.6 4.86-4.84 0-6.63-4.09-4.09-8.53l6.33-11c.7-1.21.4-2.42-.34-3.39l-.81-.98c-4.78 6.5-7.02 9.5-9.9 12.84-3.05 3.62-8.7 5.81-12.27 5.81h-1.32c-6.49 8.21-17.12 6.71-17.08-.96-4.87 4.66-9.57 7.47-14.36 8.97l-4.55 7.89c-4.32 7.37-13.13 6.16-13.13.4 0-4.49 5.07-7.78 13.13-10.25l1.67-2.82c-2.01 1.26-4.03 2.01-5.7 2.01-4.84 0-6.62-4.09-4.09-8.52l8.41-14.51c2.54-4.38 7.03-6.91 10.25-6.91 3.74 0 6.28 3.28 6.28 5.76h3.51l-13.42 22.91c4.73-2.01 8.99-5.69 13.94-11.39l.3-.35 2.46-4.21 2.94-5.12c3.45-5.99 7.02-7.83 11.63-7.83 5.64 0 8.98 5.93 5.35 12.21l-5.64 9.73c3-.06 6.34-1.5 9.05-4.44l.4-.45-.01-.01c3.92-4.61 7.49-9.68 10.14-13.42l-.52-.69c-2.13-2.77-1.85-6.17 1.55-9.22l3.11 3.4c-1.21 1.16-1.21 2.36-.35 3.46l3.35 4.03c1.96 2.36 2.93 4.5.86 8.12L497.26 147c-1.38 2.36-.63 3.29.69 3.29 2.65 0 6.86-3.98 11.18-8.98l.4-.46h.01l5.75-9.91c2.53-4.37 7.02-6.91 10.25-6.91 3.74 0 6.27 3.28 6.27 5.76h3.52l-13.42 22.92c4.73-2.02 8.98-5.7 13.94-11.4l.35-.4 5.8-9.97c2.54-4.37 6.4-6.91 11.23-6.91 4.9 0 8.01 4.15 4.79 9.68l-.87 1.49c-4.49 7.78-11.75 8.53-15.61 6.91l-.57 1.04c-2.77 4.84-.58 7.14 3.11 7.14 4.2 0 9.73-3.97 14.05-8.98l.31-.36 2.45-4.19 2.94-5.12c3.45-6 7.02-7.84 11.63-7.84 5.65 0 8.98 5.93 5.35 12.21l-5.64 9.73c3-.06 6.34-1.49 9.04-4.43l.4-.46 9.39-16.24h5.99l-11.69 20.38c-.75 1.27-2.25 3.51-.75 4.14 1.15.52 4.66-1.78 9.21-5.93l10.65-18.6h5.99l-12.78 22.41c-1.38 2.36-.64 3.28.69 3.28 2.65 0 6.85-3.97 11.17-8.98l.4-.46c5.41-6.34 10.82-14.17 13.3-17.57l4.49 2.42c-3.68 7.66-3.28 16.41-5.18 22.11a37.37 37.37 0 0 0 7.2-6.5l.4-.46c.86.23 1.9 1.15 2.25 2.07zm-112.8-1.26l4.55-7.95c2.94-5.42-3.46-6.86-6.68-1.27l-8.35 14.57c-1.38 2.36-.64 3.28.69 3.28 2.53 0 6.16-2.82 9.79-8.63zm-9.85 17.16c-4.55 1.78-5.99 3.57-5.99 5.12 0 1.61 2.02 1.96 3.29-.29l2.7-4.83zm-35.99-25.05c3.63-6.22-2.12-9.04-6.33-1.9l-2.88 4.9-4.55 7.88c-3.57 6.22 3.29 7.14 6.11 2.31l.05-.12a4 4 0 0 1-.57-2.02 3.54 3.54 0 0 1 3.51-3.57h.29l4.37-7.48zm-31.37 7.89l4.55-7.95c2.94-5.42-3.46-6.86-6.68-1.27l-8.35 14.57c-1.39 2.36-.64 3.28.69 3.28 2.53 0 6.16-2.82 9.79-8.63zm-9.85 17.16c-4.55 1.78-5.99 3.57-5.99 5.12 0 1.61 2.02 1.96 3.28-.29l2.71-4.83zm107.78-19.64c2.25.81 6.11.92 8.99-3.97l.86-1.5c3.57-6.22-2.53-7.2-5.98-1.27l-3.87 6.74zm32.94-5.41c3.62-6.22-2.13-9.04-6.33-1.9l-2.88 4.9-4.55 7.88c-3.57 6.22 3.28 7.14 6.1 2.31l.06-.12a4 4 0 0 1-.57-2.02 3.54 3.54 0 0 1 3.51-3.57h.29l4.37-7.48zm-372.36.72h57.84v3.92h-57.84v-3.92zm454 0h57.84v3.92h-57.84v-3.92z" fill="#766458"/><path id="Path 2" fill-rule="evenodd" d="M327.36.85h15.42l-2.42 89.83h-29.05l-3.95-37.09-3.95 37.09h-29.18L271.94.85h15.29l1.27 74.3h1.66l9.56-74.3h15.16l9.81 74.3h1.53l1.14-74.3zm63.71 74.3v15.53h-41.8V.85h41.8v15.4h-26.51v21.68h21.15v15.4h-21.15v21.82h26.51zm42.67 0v15.53h-36.56V.85h15.29v74.3h21.27zm32.49-17.58l15.42-3.6v27.21a9.6 9.6 0 0 1-9.43 9.5h-22.94a9.52 9.52 0 0 1-9.42-9.5V10.34c0-5.26 4.2-9.49 9.42-9.49h22.94a9.52 9.52 0 0 1 9.43 9.49v18.23l-15.42 3.59V16.25h-11.09v58.9h11.09V57.57zM523.18.85c5.1 0 9.43 4.23 9.43 9.49v70.84a9.6 9.6 0 0 1-9.43 9.5h-22.94a9.53 9.53 0 0 1-9.43-9.5V10.34a9.44 9.44 0 0 1 9.43-9.49h22.94zm-5.99 15.4H506.1v58.9h11.09v-58.9zM582.67.85h15.16v89.83h-15.29V46.53l-6.12 22.85h-14.9l-5.99-22.85v44.15h-15.29V.85h15.16l13.63 43.37L582.67.85zm64.6 74.3v15.53h-41.8V.85h41.8v15.4h-26.51v21.68h21.15v15.4h-21.15v21.82h26.51z" fill="#81b3d3"/><path id="Path 3" fill-rule="evenodd" class="shp2" d="M89.93 316.07c-7.14-5.96-16.28-9.93-25.8-9.93-7.15 0-16.68 4.17-16.68 12.51 0 8.73 10.52 12.11 17.27 14.29l9.93 2.98c20.85 6.15 36.92 16.67 36.92 40.89 0 14.89-3.57 30.18-15.48 40.3-11.71 9.93-27.39 14.1-42.48 14.1-18.86 0-37.32-6.36-52.61-17.08l16.68-31.36c9.73 8.53 21.24 15.48 34.54 15.48 9.13 0 18.86-4.57 18.86-15.09 0-10.92-15.29-14.69-23.63-17.07-24.41-6.95-40.49-13.3-40.49-42.29 0-30.37 21.63-50.22 51.61-50.22 15.09 0 33.55 4.76 46.85 12.31l-15.49 30.18zm94.73 19.45h43.88v32.96h-43.88v25.8h46.26v32.96h-85.17V277.56h85.17v32.95h-46.26v25.01zm75.17-57.97h55.19c41.69 0 76.03 32.76 76.03 74.84 0 42.09-34.54 74.84-76.03 74.84h-55.19V277.55zm38.91 116.73h8.74c23.22 0 43.08-12.7 43.08-41.88 0-26.8-17.67-41.89-42.69-41.89h-9.13v83.77zm276.01-44.66c0 48.43-34.75 82.58-82.79 82.58-48.04 0-82.78-34.14-82.78-82.58 0-45.27 39.7-77.03 82.78-77.03s82.79 31.76 82.79 77.03zm-125.07.19c0 25.81 19.06 44.67 42.28 44.67 23.23 0 42.29-18.86 42.29-44.67 0-20.64-19.06-39.5-42.29-39.5s-42.28 18.86-42.28 39.5zm145.8-72.26h38.9l71.28 91.52h.39v-91.52h38.9v149.68h-38.9l-71.27-91.71h-.4v91.71h-38.9V277.55zm220.21 123.68l-10.32 26h-41.29l57.57-149.68h42.48l56.38 149.68h-41.49l-9.73-26h-53.6zm27.2-77.42h-.4l-16.08 47.65h32.36l-15.88-47.65zM198.56 613.23c-26.55 0-31.22-29.25-15.32-39.39l3.07 3.87c-7.37 4.74-8.9 15.54-3.65 22.76a30.06 30.06 0 0 0 2.92-4.3L206 560.86c3.43-5.98 8.39-8.89 12.55-8.89 15.09 0 13.93 19.18-1.39 24.36 14.59 9.7 4.09 36.9-18.6 36.9zm7.51-35.74l-2.04-.21-12.76 22.1a40.02 40.02 0 0 1-3.79 5.39c2.84 1.61 6.41 2.63 10.94 2.63 18.38 0 25.45-26.18 7.65-29.91zm15.46-11.96c3.8-7.15-3.28-12.76-8.82-3.21l-6.13 10.51c7.74-.15 12.04-1.83 14.95-7.3z"/><path id="Path 4" fill-rule="evenodd" class="shp2" d="M263.66 608.99c-6.55 0-10.47-3.98-10.28-9.27-5.57 5.22-12.2 9.27-18.88 9.27-8.97 0-13.06-7.44-8.32-15.54l7.96-13.63c3.2-5.55 8.09-8.76 14.22-8.76 6.2 0 10.13 5.26 6.05 12.26l-1.09 1.9c-5.69 9.84-14.88 10.79-19.77 8.75l-.73 1.31c-3.5 6.12-.73 9.04 3.94 9.04 5.32 0 12.33-5.03 17.8-11.37l.51-.59c.22.1.45.24.69.39l7.54-12.93c3.21-5.55 8.1-8.76 14.22-8.76 6.2 0 10.14 5.26 6.06 12.26l-1.1 1.9h-6.2l1.09-1.9c4.53-7.88-3.2-9.12-7.58-1.6l-7.8 13.56c-3.5 6.12-.73 9.04 3.94 9.04 5.32 0 12.32-5.03 17.79-11.37l.51-.59c.37.16.77.43 1.16.73l7.69-13.27c3.21-5.55 8.9-8.76 12.98-8.76 4.96 0 8.24 4.46 7.95 7.66h4.31l-12.26 21.45c-1.75 2.99-.8 4.16.88 4.16 3.35 0 8.68-5.04 14.15-11.38l.51-.58c.18.07.38.2.57.32l12.08-20.89h7.58l-14.8 25.82c-.95 1.6-2.85 4.45-.95 5.25 1.46.65 5.91-2.26 11.67-7.51l13.49-23.56h7.59l-16.19 28.37c-1.75 3-.8 4.16.87 4.16 3.36 0 8.68-5.03 14.15-11.38l.27-.3-.22-.28c6.86-8.02 13.72-17.94 16.85-22.24l5.69 3.06c-4.67 9.7-4.16 20.79-6.56 28.01a47.32 47.32 0 0 0 9.11-8.25l.51-.58.21.09 7.37-12.63c3.21-5.55 8.1-8.75 14.22-8.75 6.2 0 10.14 5.25 6.05 12.25l-1.09 1.89c-5.69 9.85-14.88 10.8-19.77 8.76l-.73 1.31c-3.5 6.13-.72 9.04 3.94 9.04 5.33 0 12.33-5.03 17.8-11.37l.51-.59a6.55 6.55 0 0 1 2.84 2.63c-6.27 7.29-14.81 14-23.41 14-6.3 0-10.18-3.67-10.29-8.66-4.79 4.32-10.32 7.71-15.89 8.45-.07 0-.14.07-.22.07-.73.07-1.38.14-2.11.14a8.28 8.28 0 0 1-8.32-6.12l4.75-2.48s1.02 2.77 3.57 2.77c7.22 0 5.62-14.15 8.61-22.03-2.65 3.5-6.34 8.68-10.54 13.55.07.1.15.21.2.31-6.27 7.29-13.49 14-19.76 14-4.81 0-7.22-3.21-6.49-7.29-3.65 3.5-8.32 7.29-12.48 7.29-3.73 0-5.66-2.62-4.82-6.71-4.31 3.92-8.74 6.71-12.78 6.71-3.87 0-6.2-2.04-6.57-4.96-3.64 2.99-7.44 4.96-10.5 4.96-5.15 0-7.55-3.65-6.29-8.15-5.3 4.67-11.46 8.15-17.66 8.14zm26.21-4.66c3.13 0 7.66-3.43 12.25-10.64l5.91-10.36c3.72-6.86-4.37-8.68-8.46-1.61L289 600.18c-1.75 2.99-.8 4.15.87 4.15zm102.62-14.07c2.84 1.02 7.73 1.16 11.38-5.04l1.09-1.89c4.53-7.88-3.21-9.12-7.58-1.61l-4.89 8.54zm-156.75 0c2.84 1.02 7.73 1.16 11.38-5.04l1.09-1.89c4.53-7.88-3.21-9.12-7.58-1.61l-4.89 8.54zm251.77 10.3c-4.88 4.81-10 8.44-14.61 8.44-6.13 0-8.39-5.18-5.18-10.79l9.85-17.15c3.28-5.61-1.9-7.51-13.57 7.15l-11.52 20.06h-7.66l3-5.22c-4.04 3.52-8.15 5.95-11.92 5.95-6.13 0-8.39-5.17-5.18-10.79l15.25-26.41h-6.93l2.19-3.65h6.85l7.15-12.39h7.59l-7.15 12.39h6.27l-2.19 3.65h-6.2l-16.26 28.38c-1.75 2.99-.8 4.15.87 4.15 3.36 0 8.68-5.03 14.15-11.37l.51-.59c.28.12.58.3.87.51l21.4-37.12h7.58l-12.11 21.08c3.79-3.94 7.29-5.77 10.58-5.77 4.23 0 7.37 4.16 4.08 9.92l-10.94 19.19c-1.74 2.99-.8 4.15.88 4.15 3.36 0 8.68-5.03 14.15-11.37l.51-.59.23.13 7.38-12.67c3.21-5.55 8.1-8.75 14.22-8.75 6.2 0 10.14 5.25 6.06 12.25l-1.1 1.89c-5.69 9.85-14.88 10.8-19.76 8.76l-.73 1.31c-3.5 6.13-.73 9.04 3.94 9.04 5.32 0 12.32-5.03 17.8-11.37l.51-.59a6.55 6.55 0 0 1 2.84 2.63c-6.27 7.29-14.81 14-23.41 14-6.21 0-10.07-3.56-10.29-8.44zm11.52-10.3c2.85 1.02 7.74 1.16 11.38-5.04l1.1-1.89c4.52-7.88-3.21-9.12-7.59-1.61l-4.89 8.54zm231.65 4.73c-6.27 7.3-13.49 14-19.76 14-3.87 0-6.2-2.03-6.57-4.95-3.65 2.99-7.44 4.95-10.5 4.95-4.57 0-6.99-2.89-6.59-6.69-4.31 3.92-8.73 6.69-12.76 6.69-6.13 0-8.38-5.17-5.18-10.79l9.85-17.14c3.28-5.62-1.9-7.51-13.5 7l-11.59 20.21h-7.66l2.8-4.84c-3.91 3.31-7.85 5.57-11.49 5.57-3.86 0-6.2-2.04-6.56-4.96-3.65 2.99-7.44 4.96-10.5 4.96-4.33 0-6.72-2.59-6.63-6.08-4.09 3.59-8.25 6.08-12.06 6.08-6.13 0-8.39-5.18-5.18-10.79l8.02-13.93c.88-1.53.51-3.07-.44-4.31l-1.01-1.24c-5.72 7.78-8.58 11.6-11.95 15.55.19.24.36.48.47.72-8.31 9.62-16.04 15.02-23.92 17.5l-5.84 9.99c-5.47 9.34-16.63 7.8-16.63.51 0-5.69 6.35-9.85 16.63-12.98l1.97-3.43a15.2 15.2 0 0 1-8.24 2.41c-10.72 0-11.67-10.21-6.35-19.4l2.27-3.94c-6.13-3.21-9.56-9.04-9.56-15.1 0-5.1 2.41-10.28 7.81-14.15l2.47 4.45a12.09 12.09 0 0 0-4.88 9.56 12.2 12.2 0 0 0 6.78 10.79l11.82-20.35c3.42-5.98 8.38-8.9 12.54-8.9 23.78 0 10.72 36.1-16.27 36.1a27 27 0 0 1-4.3-.36l-2.11 3.72c-4.52 7.73-3.58 12.91 1.6 12.91 5.91 0 10.51-5.04 14.52-12.11l.8-1.32h7.58l-9.62 16.49c5.96-2.55 11.27-7.2 17.52-14.38a8.9 8.9 0 0 1-.51-.64c4.96-5.84 9.48-12.26 12.84-17l-.66-.87c-2.7-3.51-2.33-7.81 1.97-11.67l3.94 4.3c-1.53 1.46-1.53 2.99-.44 4.37l4.23 5.11c2.48 2.99 3.72 5.69 1.09 10.29l-7.58 13.27c-1.75 2.99-.8 4.16.87 4.16 3.36 0 8.68-5.04 14.15-11.38l.41-.47 7.34-12.66c3.2-5.54 8.9-8.75 12.98-8.75 4.96 0 8.24 4.45 7.95 7.66h4.31l-12.26 21.45c-1.74 2.99-.8 4.15.88 4.15 3.35 0 8.68-5.03 14.14-11.37l.52-.59c.23.1.47.25.72.41l12.12-20.97h7.59l-2.85 4.95c3.8-3.94 7.22-5.69 10.51-5.69 4.23 0 7.37 4.16 4.08 9.92l-10.94 19.19c-1.75 2.99-.8 4.15.88 4.15 3.36 0 8.68-5.03 14.15-11.37l.51-.59c.15.07.31.17.47.27l7.42-12.81c3.21-5.54 8.9-8.75 12.98-8.75a8.24 8.24 0 0 1 6.94 3.94l11.15-19.26h7.59l-25.68 44.42c-1.74 2.99-.79 4.16.88 4.16 3.36 0 8.69-5.04 14.15-11.38l.51-.58a6.54 6.54 0 0 1 2.85 2.61zm-89.6-11.66c3.72-6.86-4.38-8.68-8.46-1.61l-10.58 18.46c-1.74 2.99-.8 4.15.88 4.15 3.14 0 7.66-3.43 12.26-10.64l5.9-10.36zm-81.86 31.8c-5.84 2.26-7.59 4.52-7.59 6.49 0 2.04 2.56 2.48 4.16-.36l3.43-6.13zm1.75-32.09h1.53c19.84 0 28.3-24.51 16.27-24.51-2.12 0-4.6 1.68-6.86 5.54l-10.94 18.97zm153.37.29h-.07c3.72-6.86-4.38-8.68-8.46-1.61l-10.58 18.46c-1.75 2.99-.8 4.15.88 4.15 3.2 0 7.87-3.57 12.47-11.08l5.76-9.92z"/><path id="Path 5" fill-rule="evenodd" class="shp2" d="M477.27 667c-6.27 7.3-13.49 14.01-19.77 14.01-6.13 0-8.38-5.18-5.18-10.8l9.85-17.14c3.28-5.61-1.9-7.51-13.49 7.01l-11.6 20.2h-7.66l5.1-8.82c-3.39 1.87-7.14 2.91-9.91 2.91h-1.67c-8.51 10.76-22.62 8.34-21.58-2.25-6.53 6.46-12.78 10.39-19.12 12.39l-5.83 9.99c-5.47 9.34-16.63 7.81-16.63.51 0-5.68 6.42-9.92 16.7-12.98l4.16-7.15c-3.43 3.07-7.58 6.13-11.23 6.13-3.78 0-5.71-2.67-4.8-6.85-4.36 4-8.84 6.85-12.93 6.85-6.12 0-8.38-5.17-5.17-10.79l9.84-17.14c3.28-5.62-1.9-7.51-13.49 7.01l-11.6 20.2h-7.66l2.8-4.84c-3.9 3.31-7.85 5.57-11.49 5.57-3.86 0-6.19-2.04-6.56-4.96-3.65 2.99-7.44 4.96-10.5 4.96-5.37 0-7.77-3.98-6.12-8.75-5.23 4.97-11.45 8.75-19.94 8.75-10.72 0-13.85-10.21-8.53-19.4l2.26-3.94c-6.13-3.21-9.56-9.05-9.56-15.1 0-5.11 2.41-10.28 7.81-14.15l2.48 4.45a12.05 12.05 0 0 0-4.89 9.55c0 4.23 2.34 8.46 6.79 10.8l11.81-20.35c3.43-5.98 8.39-8.9 12.55-8.9 5.61 0 10.06 4.45 10.06 11.3 0 2.99-.95 6.49-3.06 10.21-5.98 10.43-15.17 14.59-23.27 14.59-1.53 0-2.91-.15-4.3-.37l-2.12 3.72c-4.52 7.73-1.38 12.91 3.8 12.91 7.51 0 14.22-5.03 19.69-11.38l.51-.58c.55.14 1.14.51 1.66.98l7.84-13.53c3.21-5.54 8.9-8.75 12.98-8.75 4.96 0 8.24 4.45 7.95 7.66h4.31l-12.26 21.44c-1.75 2.99-.8 4.16.88 4.16 3.35 0 8.68-5.03 14.15-11.38l.51-.58c.22.1.47.24.72.4l12.12-20.97h7.59l-2.85 4.96c3.79-3.94 7.22-5.69 10.5-5.69 4.23 0 7.37 4.16 4.09 9.92l-10.94 19.18c-1.75 2.99-.8 4.16.87 4.16 3.36 0 8.68-5.03 14.15-11.38l.51-.58c.21.09.44.23.67.37l12.1-20.94h7.59l-14.81 25.82c-.95 1.61-2.84 4.45-.95 5.25 1.46.66 5.98-2.33 11.82-7.73l13.42-23.34h7.58l-20.79 35.6c5.98-2.56 11.31-7.23 17.58-14.45l.51-.58c.22.09.45.23.69.38l3.25-5.56 3.72-6.49c4.38-7.59 8.9-9.92 14.73-9.92 7.15 0 11.38 7.51 6.79 15.46l-7.15 12.33c3.79-.08 8.02-1.9 11.45-5.62l.51-.59c.31.13.64.35.97.58l12.22-21.14h7.59l-2.85 4.95c3.8-3.93 7.22-5.68 10.51-5.68 4.22 0 7.37 4.15 4.08 9.92l-10.94 19.18c-1.75 2.99-.8 4.16.88 4.16 3.35 0 8.68-5.04 14.14-11.38l.51-.59a6.58 6.58 0 0 1 2.85 2.63zm-103.71 20.13c-5.83 2.26-7.66 4.52-7.66 6.49 0 2.04 2.56 2.48 4.16-.37l3.5-6.12zm-55.3-31.8c3.73-6.86-4.37-8.68-8.45-1.61l-10.58 18.46c-1.75 2.99-.8 4.15.88 4.15 3.13 0 7.66-3.42 12.25-10.64l5.9-10.36zm-43.55-.29h1.53c11.82 0 20.42-12.77 20.42-19.84 0-2.77-1.31-4.67-4.15-4.67-2.12 0-4.6 1.68-6.86 5.54l-10.94 18.97zm151.95.36c4.59-7.88-2.7-11.45-8.03-2.41l-3.64 6.2-5.76 10c-4.53 7.87 4.15 9.04 7.73 2.91l.07-.14a4.94 4.94 0 0 1-.73-2.55 4.49 4.49 0 0 1 4.45-4.53h.37l5.54-9.48zm202.5 25.39c-.07 0-.14.07-.21.07-.74.07-1.4.15-2.12.15-6.93 0-8.32-6.13-8.32-6.13l4.74-2.48s1.03 2.78 3.58 2.78c7.22 0 5.62-14.16 8.6-22.03-2.69 3.57-6.48 8.9-10.79 13.86a.55.55 0 0 0-.09-.07l.04.07c-6.27 7.29-13.5 14-19.77 14-6.13 0-7.36-3.28-7.36-9.77v-6.06l-8.68 15.1h-7.66l4.22-7.33c-5.27 4.62-11.39 8.06-17.55 8.06-6.34 0-10.22-3.72-10.29-8.76-4.97 4.97-10.22 8.76-14.93 8.76-4.82 0-7.22-3.21-6.49-7.29-3.65 3.5-8.32 7.29-12.47 7.29-3.18 0-5.04-1.89-5.02-4.97-3.58 2.47-7.41 4.24-11.26 4.75-.07 0-.15.08-.22.08-.73.07-1.38.14-2.12.14-6.92 0-8.31-6.12-8.31-6.12l4.74-2.48s1.02 2.77 3.57 2.77c7.23 0 5.62-14.15 8.61-22.03-2.7 3.58-17.14 22.17-21.44 27.13a11.1 11.1 0 0 1-2.85-2.62c6.86-8.02 24.37-31.22 27.5-35.52l5.69 3.06c-4.67 9.7-4.16 20.79-6.56 28.01a45.03 45.03 0 0 0 4.9-3.91l14.73-25.48h7.58l-14.8 25.82c-.95 1.6-2.85 4.45-.95 5.25 1.46.65 5.9-2.27 11.67-7.52l13.49-23.55h7.59l-16.19 28.37c-1.75 2.99-.81 4.16.87 4.16 3.36 0 8.68-5.04 14.15-11.38l.51-.59c.15.07.31.18.47.27l7.46-12.81c3.21-5.54 8.1-8.75 14.23-8.75 6.19 0 10.13 5.25 6.05 12.25l-1.09 1.9h-6.21l1.1-1.9c4.52-7.88-3.21-9.12-7.59-1.6l-7.8 13.56c-3.5 6.13-.73 9.04 3.94 9.04 5.32 0 12.33-5.03 17.79-11.37l.52-.59c.43.19.92.53 1.38.92l21.63-37.53h7.59l-10.79 18.74c7.73-7.08 19.25-3.06 12.18 9.04l-2.04 3.5c-3.57 6.2-9.19 9.7-14.51 9.05v3.13c0 3.43 1.6 5.11 3.28 5.11 3.36 0 8.68-5.03 14.15-11.38l.51-.58.09.05-.04-.05c6.86-8.03 13.71-17.95 16.85-22.25l5.69 3.06c-4.67 9.71-4.16 20.79-6.56 28.01a47.59 47.59 0 0 0 9.12-8.24l.51-.58a4.78 4.78 0 0 1 2.84 2.62c-5.69 6.64-13.35 12.76-21.08 13.79zm-18.72-21.52l3.65-6.27c2.7-4.6-3.28-7.96-12.04 4.23l-2.18 3.79c1.67 4.96 8.31 2.19 10.57-1.75zm43.96 17.36a4.36 4.36 0 0 1-4.45 4.37 4.3 4.3 0 0 1-4.38-4.37c0-2.49 1.9-4.45 4.38-4.45a4.43 4.43 0 0 1 4.45 4.45zm19.76-48.87h7.58l-23.77 41.43h-7.66l23.85-41.43zm-496.61-71.75a4.82 4.82 0 0 1-1.35 3.35 5.13 5.13 0 0 1-3.86 1.59 6.8 6.8 0 0 1-2.6-.51 5.8 5.8 0 0 1-2.13-1.45 6.27 6.27 0 0 1-1.15-2.1 8.1 8.1 0 0 1-.41-2.57c0-1.71.31-3.29.92-4.74a12.17 12.17 0 0 1 2.6-3.86 15.48 15.48 0 0 1 3.49-2.46 30.32 30.32 0 0 1 2.2-1.05l2.7 4c-.49.17-1.04.41-1.65.7-.61.3-1.19.65-1.73 1.08a5.8 5.8 0 0 0-1.35 1.53 4.32 4.32 0 0 0-.61 2.03c1.31 0 2.46.38 3.45 1.15.99.76 1.48 1.86 1.48 3.31zm-15.73 0a4.82 4.82 0 0 1-1.35 3.35 5.24 5.24 0 0 1-3.86 1.59 6.8 6.8 0 0 1-2.6-.51 5.8 5.8 0 0 1-2.13-1.45 6.27 6.27 0 0 1-1.15-2.1 8.1 8.1 0 0 1-.41-2.57 11.93 11.93 0 0 1 5.21-9.98 22.97 22.97 0 0 1 3.25-1.79l.74-.34 2.71 3.99c-.5.18-1.05.42-1.66.71-.61.3-1.18.65-1.72 1.08-.54.43-.99.94-1.36 1.52a4.28 4.28 0 0 0-.6 2.04c1.3 0 2.45.38 3.45 1.15.99.76 1.48 1.86 1.48 3.31zm530.32 117.88a4.96 4.96 0 0 1 3.01-4.5 5.4 5.4 0 0 1 2.2-.44c.91 0 1.77.17 2.61.51.83.34 1.54.82 2.13 1.46a6.3 6.3 0 0 1 1.15 2.09c.27.81.4 1.67.4 2.57 0 1.71-.3 3.29-.91 4.74a12.18 12.18 0 0 1-4.3 5.24 23.16 23.16 0 0 1-3.25 1.79l-.74.34-2.71-3.99c.5-.18 1.05-.42 1.66-.71a8.56 8.56 0 0 0 1.72-1.08c.55-.43 1-.94 1.36-1.53.36-.58.56-1.26.61-2.03a5.46 5.46 0 0 1-3.45-1.15 3.93 3.93 0 0 1-1.49-3.31zm15.74 0a4.94 4.94 0 0 1 1.35-3.35 5.2 5.2 0 0 1 3.85-1.59c.91 0 1.78.17 2.61.51.83.34 1.54.82 2.13 1.46.5.58.88 1.28 1.15 2.09.27.81.41 1.67.41 2.57 0 1.71-.31 3.29-.92 4.74a12.02 12.02 0 0 1-4.3 5.24c-.62.43-1.22.79-1.79 1.08-.56.29-1.05.53-1.46.71l-.74.34-2.71-3.99c.5-.18 1.05-.42 1.66-.71a8.85 8.85 0 0 0 1.72-1.08c.54-.43 1-.94 1.36-1.53.36-.58.56-1.26.61-2.03a5.46 5.46 0 0 1-3.45-1.15 3.92 3.92 0 0 1-1.48-3.31z"/></g></svg>